<svg id="Layer_1" data-name="Layer 1" xmlns="http://www.w3.org/2000/svg" viewBox="0 0 114.63 125.63"><path d="M69.42,37l.14.21.18.28A21,21,0,0,1,71.14,40c4.9,4.88,7.75,12.81,8.16,23.88.57,14-3.59,22.57-9.9,27.09l2,2,.55.54C85.38,89.06,94.55,78.52,94.55,64c0-16-10.84-26.38-26.77-29.58Z"/><path d="M22.84,72.77c-4.69,3.61-22,18.4-22,18.4l.65.72c3.4-2.9,6.14-5.32,8.93-7.41a15.52,15.52,0,0,1,9.45-3.24c5.62,0,11.39,3,16.26,8.13,6.67,7,16,16.72,27.06,27.79,5.55,5.56,10.9,7.37,15.42,7.37a17.9,17.9,0,0,0,11-3.89c9.33-7.55,24.38-19.87,24.38-19.87l-.64-.71c-2.54,2.07-4.8,3.9-7.68,6.1a16.85,16.85,0,0,1-10.4,3.69c-5.93,0-11.65-3.2-16.09-7.51-3.11-3-6-5.83-8.73-8.49l-2.26-2.2C58.41,82,51.88,75.59,51.88,75.59s6.73-6.52,13-12.38C72.8,55.79,73.74,46,68.65,38.16l-.32-.49h0c-.88-1.36-1.64-2.52-2.36-3.62h0c-3.23-5-5.1-7.78-8-12.13-4.67-7.08-3.31-12.52.17-15.53,2.49-2.15,5.55-4.74,5.55-4.74L63.08,1S51.59,10.33,47.37,13.86c-4.83,4.05-5.06,11.93-1.76,17,1.8,2.76,3.07,4.71,5,7.67l.08.11c1.33,2,3,4.51,5.35,8.08,3.74,5.62,6.83,16.8-1.29,24.64-2,1.91-3.67,3.38-3.67,3.38s-.26-.2-.39-.33h0C45.62,69.63,40.59,68,36.14,68A22.51,22.51,0,0,0,22.84,72.77Z"/><path d="M37.11,66.72c4.77.24,9.34,2.23,13.6,6V41l-1.09-1.64,0-.06,0,0c-1.53-2.32-2.64-4-3.9-6h-16v.82h7.5Z"/></svg>